# xmcd
#
# Track frame offsets: 
#        150
#        45637
#        74917
#        111001
#
# Disc length: 1891 seconds
#
# Revision: 0
# Processed by: cddbd v1.5.2PL0 Copyright (c) Steve Scherf et al.
# Submitted via: ExactAudioCopy v0.95a5
#
DISCID=37076104
DTITLE=Relaxando com os passarinhos - Relaxando com os passarinhos
DYEAR=2008
DGENRE=Acid Jazz
TTITLE0=Passarinhos
TTITLE1=Primavera
TTITLE2=Bird Song
TTITLE3=Gorjeios
EXTD=
EXTT0=
EXTT1=
EXTT2=
EXTT3=
PLAYORDER=
